Coordinates
version=1
nRows=24
nColumns=34
inDegrees=no

Units are S.I. units (second, meters, Newtons, ...)
If the header above contains a line with 'inDegrees', this indicates whether rotational values are in degrees (yes) or radians (no).

endheader
time	pelvis_tilt	pelvis_list	pelvis_rotation	pelvis_tx	pelvis_ty	pelvis_tz	hip_flexion_r	hip_adduction_r	hip_rotation_r	knee_angle_r	ankle_angle_r	subtalar_angle_r	mtp_angle_r	hip_flexion_l	hip_adduction_l	hip_rotation_l	knee_angle_l	ankle_angle_l	subtalar_angle_l	mtp_angle_l	lumbar_extension	lumbar_bending	lumbar_rotation	arm_flex_r	arm_add_r	arm_rot_r	elbow_flex_r	pro_sup_r	arm_flex_l	arm_add_l	arm_rot_l	elbow_flex_l	pro_sup_l
0.47	0.0954318	-0.0552733	-0.0589597	0.374136	0.95495	-0.209166	-0.163261	0.070162	-0.242029	0.241394	0.502286	0.355236	-0.0130146	0.393063	-0.100076	-0.193562	0.237077	0.0427054	0.0143823	-0.0118084	-0.319017	0.022428	-0.014144	0.10229	-0.199928	0.142455	0.622007	1.88732	0.0376437	-0.128605	-0.174281	0.661481	1.78896
0.48	0.101445	-0.0518719	-0.05942	0.385132	0.953331	-0.208267	-0.180945	0.063315	-0.257769	0.247344	0.519638	0.377986	-0.0130214	0.38038	-0.0913323	-0.189756	0.183462	0.0530959	0.0353713	-0.0118054	-0.329299	0.00874098	-0.0163812	0.108947	-0.199476	0.153427	0.625777	1.89071	0.041367	-0.132034	-0.180549	0.660234	1.78594
0.49	0.107103	-0.0484111	-0.0597785	0.396256	0.951657	-0.207385	-0.19822	0.0567212	-0.27121	0.253446	0.535548	0.396812	-0.0130281	0.368602	-0.0827602	-0.183666	0.136279	0.0633572	0.0496972	-0.0118024	-0.339023	-0.00516229	-0.0190421	0.115247	-0.198642	0.163905	0.629246	1.89314	0.0448491	-0.135806	-0.186402	0.658331	1.78362
0.5	0.11224	-0.0448116	-0.0600768	0.407512	0.949944	-0.206497	-0.214985	0.050448	-0.281788	0.259503	0.549722	0.411053	-0.0130349	0.358452	-0.0746554	-0.176742	0.0971829	0.0732768	0.0575023	-0.0117994	-0.347999	-0.0194381	-0.0220321	0.121017	-0.19731	0.17363	0.632463	1.89468	0.0480222	-0.139983	-0.191895	0.655873	1.78199
0.51	0.116701	-0.0409672	-0.0603479	0.418906	0.948206	-0.205583	-0.23115	0.0444948	-0.289171	0.265329	0.56192	0.42034	-0.0130417	0.350559	-0.0671941	-0.170473	0.0675457	0.0827036	0.0594956	-0.0117965	-0.356047	-0.0342695	-0.0252644	0.126083	-0.195383	0.182387	0.635469	1.89542	0.0508274	-0.144621	-0.197054	0.652963	1.78099
0.52	0.120355	-0.0367468	-0.060615	0.430449	0.94646	-0.204628	-0.246651	0.038787	-0.293281	0.270749	0.571957	0.42461	-0.0130485	0.345357	-0.0604004	-0.166099	0.0482307	0.0914395	0.0566945	-0.0117935	-0.363008	-0.0498553	-0.0286621	0.130285	-0.192799	0.190033	0.638295	1.89546	0.0532209	-0.149759	-0.201881	0.649682	1.7805
0.53	0.123104	-0.0320023	-0.0608917	0.442154	0.94472	-0.203626	-0.261461	0.0331842	-0.294269	0.275608	0.579703	0.424077	-0.0130552	0.343017	-0.0541442	-0.164362	0.0394216	0.0991319	0.0501485	-0.0117905	-0.368757	-0.0663924	-0.0321543	0.133476	-0.189537	0.196502	0.640965	1.89491	0.0551792	-0.155412	-0.206358	0.646081	1.78037
0.54	0.124885	-0.0265859	-0.0611842	0.454037	0.943	-0.202576	-0.27558	0.0275033	-0.292455	0.279782	0.585073	0.419151	-0.013062	0.343421	-0.0481706	-0.165388	0.0405497	0.105211	0.0407298	-0.0117875	-0.373203	-0.0840537	-0.0356691	0.135535	-0.185619	0.20181	0.64349	1.89388	0.0567034	-0.161568	-0.210454	0.642171	1.78043
0.55	0.125664	-0.0203732	-0.0614932	0.466118	0.94131	-0.201492	-0.289021	0.0215537	-0.28825	0.283196	0.588015	0.410345	-0.0130688	0.3462	-0.0421519	-0.168703	0.0503459	0.108898	0.0290313	-0.0117846	-0.376291	-0.102964	-0.0391239	0.13637	-0.18111	0.206048	0.64587	1.89245	0.0578206	-0.168188	-0.214119	0.637928	1.78052
0.56	0.125426	-0.0132908	-0.0618157	0.478415	0.939655	-0.200387	-0.301775	0.0151784	-0.28207	0.285845	0.588493	0.398157	-0.0130755	0.350816	-0.0357567	-0.1734	0.0670159	0.109301	0.0153883	-0.0117816	-0.377989	-0.123175	-0.0424166	0.135923	-0.176107	0.209369	0.648088	1.89074	0.0585828	-0.175207	-0.2173	0.633302	1.78049
0.57	0.124178	-0.0053288	-0.0621486	0.490947	0.938077	-0.199293	-0.313783	0.00829816	-0.274254	0.287824	0.58646	0.382968	-0.0130823	0.356682	-0.0287287	-0.178383	0.0885062	0.105594	-4.38995e-06	-0.0117786	-0.378275	-0.14464	-0.045418	0.134174	-0.170728	0.211965	0.650106	1.88889	0.0590635	-0.182546	-0.219951	0.628237	1.78022
0.58	0.121914	0.00341498	-0.0624899	0.503722	0.936593	-0.198225	-0.324905	0.000939758	-0.265007	0.289354	0.581831	0.364959	-0.0130891	0.363274	-0.0209512	-0.182644	0.112809	0.0972275	-0.0169381	-0.0117756	-0.377137	-0.167209	-0.0479699	0.131148	-0.165098	0.21405	0.651863	1.88708	0.0593514	-0.190108	-0.222051	0.622688	1.77963
0.59	0.118624	0.0127404	-0.0628432	0.516738	0.93522	-0.197198	-0.334906	-0.00674781	-0.254378	0.290796	0.574456	0.344082	-0.0130959	0.370215	-0.0124953	-0.185473	0.138232	0.0841427	-0.0350633	-0.0117726	-0.374562	-0.190626	-0.0498878	0.12691	-0.15934	0.215839	0.653274	1.88552	0.0595437	-0.19779	-0.223621	0.616636	1.7787
0.6	0.114298	0.0223606	-0.0632197	0.529982	0.933971	-0.196216	-0.343453	-0.014506	-0.242275	0.292667	0.56409	0.320064	-0.0131027	0.377312	-0.00362528	-0.186568	0.163588	0.0669044	-0.0538389	-0.0117697	-0.370549	-0.214542	-0.0509725	0.121563	-0.153561	0.217533	0.654238	1.88444	0.0597384	-0.205483	-0.224736	0.610102	1.77744
0.61	0.108946	0.0319381	-0.0636384	0.54343	0.932859	-0.195282	-0.350138	-0.022009	-0.22852	0.295627	0.550375	0.292472	-0.0131095	0.384533	0.00524505	-0.186029	0.188257	0.0467249	-0.0725689	-0.0117667	-0.365123	-0.238557	-0.051033	0.115252	-0.147854	0.219309	0.654648	1.8841	0.0600279	-0.213075	-0.22553	0.603146	1.77586
0.62	0.102611	0.0411373	-0.064123	0.557049	0.931899	-0.194395	-0.354508	-0.0289281	-0.212941	0.300466	0.532837	0.260821	-0.0131162	0.391942	0.0136376	-0.184253	0.212127	0.0253506	-0.0905058	-0.0117637	-0.358356	-0.262264	-0.0499174	0.108153	-0.142298	0.221322	0.654407	1.88472	0.0604922	-0.220456	-0.226185	0.595869	1.77402
0.63	0.0953902	0.0496749	-0.0646955	0.570798	0.931104	-0.193555	-0.356096	-0.0349968	-0.195466	0.308074	0.510905	0.224692	-0.013123	0.399617	0.0211081	-0.181793	0.235443	0.00483408	-0.106963	-0.0117607	-0.350392	-0.2853	-0.0475465	0.10047	-0.136958	0.223719	0.653448	1.88648	0.0611937	-0.227526	-0.22692	0.588409	1.77197
0.64	0.0874413	0.0573682	-0.0653678	0.584633	0.930489	-0.192764	-0.354464	-0.0400763	-0.176227	0.319391	0.483941	0.183876	-0.0131298	0.407558	0.027347	-0.179207	0.258594	-0.0127636	-0.121403	-0.0117577	-0.341457	-0.307394	-0.0439465	0.0924355	-0.131894	0.22666	0.651753	1.88951	0.0621706	-0.234198	-0.227965	0.580935	1.76975
0.65	0.0789919	0.0641701	-0.0661312	0.598509	0.930076	-0.192032	-0.349248	-0.0442046	-0.155632	0.335341	0.451312	0.138488	-0.0131366	0.415618	0.0322587	-0.176948	0.281897	-0.0256831	-0.133481	-0.0117547	-0.331877	-0.328396	-0.0392738	0.0842937	-0.127173	0.230336	0.649369	1.8938	0.0634294	-0.240406	-0.229538	0.573637	1.76742
0.66	0.0703279	0.0701702	-0.0669519	0.612382	0.929887	-0.191375	-0.34019	-0.0476033	-0.134378	0.356754	0.412475	0.0890205	-0.0131434	0.423471	0.035985	-0.175302	0.305437	-0.0327167	-0.14305	-0.0117518	-0.322054	-0.348277	-0.0338186	0.0762965	-0.122871	0.234992	0.646417	1.89928	0.0649402	-0.246107	-0.231825	0.566722	1.76502
0.67	0.0617711	0.0755667	-0.0677713	0.626214	0.929939	-0.190816	-0.327163	-0.0506453	-0.113384	0.384269	0.367084	0.0363187	-0.0131502	0.430635	0.0388739	-0.174373	0.32899	-0.0333523	-0.15014	-0.0117488	-0.312439	-0.36711	-0.0279837	0.0686884	-0.119082	0.240924	0.643092	1.90574	0.0666353	-0.25128	-0.234959	0.560394	1.76263
0.68	0.0536399	0.0806154	-0.0685142	0.639975	0.930244	-0.190382	-0.310182	-0.0537948	-0.0936859	0.418253	0.315121	-0.0184988	-0.013157	0.436537	0.0414054	-0.174106	0.352048	-0.0277855	-0.154922	-0.0117458	-0.303477	-0.385017	-0.0222425	0.0616942	-0.115918	0.248467	0.639648	1.91291	0.0684114	-0.255922	-0.239006	0.554843	1.76028
0.69	0.046206	0.0855644	-0.0691029	0.653638	0.930799	-0.190099	-0.289397	-0.0575261	-0.0762882	0.458726	0.257026	-0.0741624	-0.0131638	0.440611	0.0440864	-0.174345	0.373918	-0.0168099	-0.157676	-0.0117428	-0.295556	-0.402117	-0.0170798	0.0555064	-0.113508	0.257959	0.636379	1.92045	0.0701378	-0.260042	-0.24396	0.550228	1.75803
0.7	0.039649	0.0905872	-0.0694812	0.667178	0.931595	-0.189986	-0.265076	-0.062233	-0.0620102	0.505326	0.193813	-0.129401	-0.0131706	0.442402	0.0473399	-0.174885	0.393874	-0.00162042	-0.158744	-0.0117398	-0.288946	-0.418468	-0.0129282	0.0502758	-0.111984	0.269682	0.633581	1.928	0.0716703	-0.263652	-0.249743	0.546661	1.75588
